<svg xmlns="http://www.w3.org/2000/svg" width="1024" height="1024" viewBox="0 0 1024 1024">
  <defs>
    <linearGradient id="bg" x1="0%" y1="0%" x2="100%" y2="100%">
      <stop offset="0%" style="stop-color:#6366f1"/>
      <stop offset="100%" style="stop-color:#8b5cf6"/>
    </linearGradient>
  </defs>
  <rect width="1024" height="1024" rx="200" fill="url(#bg)"/>
  <g transform="translate(512,420)">
    <rect x="-220" y="-120" width="180" height="240" rx="16" fill="#ffffff" opacity="0.95"/>
    <rect x="-10" y="-120" width="180" height="160" rx="16" fill="#ffffff" opacity="0.85"/>
    <rect x="200" y="-80" width="140" height="200" rx="16" fill="#ffffff" opacity="0.75"/>
    <rect x="-190" y="-90" width="120" height="8" rx="4" fill="#6366f1"/>
    <rect x="-190" y="-70" width="80" height="8" rx="4" fill="#c7d2fe"/>
    <rect x="-190" y="-50" width="100" height="8" rx="4" fill="#c7d2fe"/>
    <circle cx="-130" cy="20" r="30" fill="#22c55e" opacity="0.9"/>
    <path d="M-142,20 L-130,32 L-116,12" stroke="#fff" stroke-width="5" fill="none" stroke-linecap="round" stroke-linejoin="round"/>
    <rect x="20" y="-90" width="120" height="8" rx="4" fill="#6366f1"/>
    <rect x="20" y="-70" width="90" height="8" rx="4" fill="#c7d2fe"/>
    <rect x="20" y="-50" width="60" height="8" rx="4" fill="#c7d2fe"/>
    <circle cx="80" cy="0" r="24" fill="#f59e0b" opacity="0.9"/>
    <path d="M72,0 L80,-8 L88,0 L80,8 Z" fill="#fff"/>
    <rect x="230" y="-50" width="80" height="6" rx="3" fill="#6366f1"/>
    <rect x="230" y="-35" width="60" height="6" rx="3" fill="#c7d2fe"/>
    <rect x="230" y="-20" width="70" height="6" rx="3" fill="#c7d2fe"/>
    <circle cx="270" cy="40" r="26" fill="#ef4444" opacity="0.9"/>
    <path d="M260,40 L280,40 M270,30 L270,50" stroke="#fff" stroke-width="4" stroke-linecap="round"/>
  </g>
  <text x="512" y="720" text-anchor="middle" font-family="-apple-system,BlinkMacSystemFont,sans-serif" font-size="140" font-weight="800" fill="#ffffff" letter-spacing="-4">CPMS</text>
  <rect x="300" y="760" width="424" height="36" rx="18" fill="#ffffff" opacity="0.25"/>
</svg>
